<svg width="40" height="30" viewBox="0 0 40 30" fill="none" xmlns="http://www.w3.org/2000/svg">
<path d="M38.76 12.2157L26.26 0.963195C24.72 -0.421805 22.3475 -0.301805 20.9625 1.24319C19.5775 2.78069 19.7025 5.15319 21.2425 6.53819L26.475 11.2507H3.75C1.6775 11.2507 0 12.9282 0 15.0007C0 17.0732 1.6775 18.7507 3.75 18.7507H26.48L21.24 23.4632C19.7 24.8507 19.575 27.2207 20.96 28.7582C21.7025 29.5807 22.725 30.0007 23.75 30.0007C24.645 30.0007 25.5425 29.6832 26.2575 29.0382L38.7575 17.7907C39.5475 17.0807 40 16.0657 40 15.0032C40 13.9407 39.5475 12.9257 38.76 12.2157Z" fill="#636363"/>
</svg>
