<svg width="135" height="50" viewBox="0 0 135 50" fill="none" xmlns="http://www.w3.org/2000/svg">
<path d="M5.78749 38.3653C5.78749 28.7583 0.811096 22.1611 0.811096 17.532C0.811096 12.9028 3.47221 3.18057 24.768 3.18057C46.0639 3.18057 49.1889 16.2597 49.1889 21.3514C49.1903 45.1945 5.78749 55.3792 5.78749 38.3653V38.3653Z" fill="#EEA7A7"/>
<path d="M32.6389 28.8195C34.7483 28.8195 36.4583 27.1094 36.4583 25C36.4583 22.8906 34.7483 21.1806 32.6389 21.1806C30.5295 21.1806 28.8195 22.8906 28.8195 25C28.8195 27.1094 30.5295 28.8195 32.6389 28.8195Z" fill="#EEA7A7"/>
<path d="M31.9445 25C31.9445 23.4486 32.8736 22.1195 34.2014 21.5222C33.7236 21.307 33.1972 21.1806 32.6389 21.1806C30.5292 21.1806 28.8195 22.8903 28.8195 25C28.8195 27.1097 30.5292 28.8195 32.6389 28.8195C33.1972 28.8195 33.7236 28.6931 34.2014 28.4778C32.8736 27.8806 31.9445 26.5514 31.9445 25Z" fill="#EEA7A7"/>
<path d="M26.0417 8.33334H26.7361V10.4167H26.0417V8.33334Z" fill="black"/>
<path d="M12.1528 8.33334H12.8472V10.4167H12.1528V8.33334Z" fill="black"/>
<path d="M26.0417 9.375C24.8889 9.375 23.9583 10.3056 23.9583 11.4583C23.9583 12.2222 23.3333 12.8472 22.5694 12.8472H16.3194C15.5556 12.8472 14.9306 12.2222 14.9306 11.4583C14.9306 10.3056 14 9.375 12.8472 9.375H26.0417Z" fill="#EEA7A7"/>
<path d="M29.5139 12.0972V37.9028C29.5139 39.4028 28.3056 40.625 26.8333 40.625H12.0556C10.5833 40.625 9.375 39.4028 9.375 37.9028V12.0972C9.375 10.5972 10.5833 9.375 12.0556 9.375H12.8472C14 9.375 14.9306 10.3056 14.9306 11.4583C14.9306 12.2222 15.5556 12.8472 16.3194 12.8472H22.5694C23.3333 12.8472 23.9583 12.2222 23.9583 11.4583C23.9583 10.3056 24.8889 9.375 26.0417 9.375H26.8333C28.3056 9.375 29.5139 10.5972 29.5139 12.0972Z" fill="#F3F3F1"/>
<path d="M12.5 37.9028V12.0972C12.5 11.0514 13.0944 10.1514 13.9486 9.69583C13.6292 9.49583 13.2528 9.375 12.8472 9.375H12.0556C10.5833 9.375 9.375 10.5972 9.375 12.0972V37.9028C9.375 39.4028 10.5833 40.625 12.0556 40.625H15.1806C13.7083 40.625 12.5 39.4028 12.5 37.9028Z" fill="#D5DBE1"/>
<path d="M32.6389 29.8611C29.9583 29.8611 27.7778 27.6806 27.7778 25C27.7778 22.3194 29.9583 20.1389 32.6389 20.1389C35.3194 20.1389 37.5 22.3194 37.5 25C37.5 27.6806 35.3194 29.8611 32.6389 29.8611ZM32.6389 22.2222C31.1069 22.2222 29.8611 23.4681 29.8611 25C29.8611 26.5319 31.1069 27.7778 32.6389 27.7778C34.1708 27.7778 35.4167 26.5319 35.4167 25C35.4167 23.4681 34.1708 22.2222 32.6389 22.2222Z" fill="black"/>
<path d="M31.5973 28.8195H33.6806V31.5972H31.5973V28.8195Z" fill="black"/>
<path d="M31.5973 18.4028H33.6806V21.1805H31.5973V18.4028Z" fill="black"/>
<path d="M35.4222 22.1973L37.8266 20.8091L38.8683 22.6133L36.4639 24.0015L35.4222 22.1973Z" fill="black"/>
<path d="M26.4079 27.3916L28.8122 26.0034L29.8539 27.8075L27.4496 29.1957L26.4079 27.3916Z" fill="black"/>
<path d="M26.4041 22.5988L27.4458 20.7947L29.8501 22.1829L28.8085 23.987L26.4041 22.5988Z" fill="black"/>
<path d="M35.415 27.79L36.4567 25.9859L38.861 27.3741L37.8194 29.1782L35.415 27.79Z" fill="black"/>
<path d="M22.5694 13.8889H16.3194C14.9792 13.8889 13.8889 12.7986 13.8889 11.4583C13.8889 10.8833 13.4208 10.4167 12.8472 10.4167H12.1528V8.33334H12.8472C14.5694 8.33334 15.9722 9.73473 15.9722 11.4583C15.9722 11.65 16.1278 11.8056 16.3194 11.8056H22.5694C22.7611 11.8056 22.9167 11.65 22.9167 11.4583C22.9167 9.73473 24.3194 8.33334 26.0417 8.33334H26.7361V10.4167H26.0417C25.468 10.4167 25 10.8833 25 11.4583C25 12.7986 23.9097 13.8889 22.5694 13.8889Z" fill="black"/>
<path d="M26.8278 41.6667H12.0611C10.0055 41.6667 8.33331 39.9806 8.33331 37.907V12.0931C8.33331 10.0195 10.0055 8.33334 12.0611 8.33334H26.8291C28.8833 8.33334 30.5555 10.0195 30.5555 12.0931V16.9583H28.4722V12.0931C28.4722 11.1681 27.7347 10.4167 26.8278 10.4167H12.0611C11.1541 10.4167 10.4166 11.1681 10.4166 12.0931V37.9084C10.4166 38.8334 11.1541 39.5847 12.0611 39.5847H26.8291C27.7347 39.5847 28.4736 38.8334 28.4736 37.9084V33.0417H30.5555V37.907C30.5555 39.9806 28.8833 41.6667 26.8278 41.6667Z" fill="black"/>
<path d="M69.1885 26.7373C69.0889 28.1143 68.5791 29.1982 67.6592 29.9893C66.7451 30.7803 65.5381 31.1758 64.0381 31.1758C62.3975 31.1758 61.1055 30.625 60.1621 29.5234C59.2246 28.416 58.7559 26.8984 58.7559 24.9707V24.1885C58.7559 22.958 58.9727 21.874 59.4062 20.9365C59.8398 19.999 60.458 19.2812 61.2607 18.7832C62.0693 18.2793 63.0068 18.0273 64.0732 18.0273C65.5498 18.0273 66.7393 18.4229 67.6416 19.2139C68.5439 20.0049 69.0654 21.1152 69.2061 22.5449H66.5693C66.5049 21.7188 66.2734 21.1211 65.875 20.752C65.4824 20.377 64.8818 20.1895 64.0732 20.1895C63.1943 20.1895 62.5352 20.5059 62.0957 21.1387C61.6621 21.7656 61.4395 22.7412 61.4277 24.0654V25.0322C61.4277 26.415 61.6357 27.4258 62.0518 28.0645C62.4736 28.7031 63.1357 29.0225 64.0381 29.0225C64.8525 29.0225 65.459 28.8379 65.8574 28.4688C66.2617 28.0938 66.4932 27.5166 66.5518 26.7373H69.1885ZM76.2637 31C76.1465 30.7715 76.0615 30.4873 76.0088 30.1475C75.3936 30.833 74.5938 31.1758 73.6094 31.1758C72.6777 31.1758 71.9043 30.9062 71.2891 30.3672C70.6797 29.8281 70.375 29.1484 70.375 28.3281C70.375 27.3203 70.7471 26.5469 71.4912 26.0078C72.2412 25.4688 73.3223 25.1963 74.7344 25.1904H75.9033V24.6455C75.9033 24.2061 75.7891 23.8545 75.5605 23.5908C75.3379 23.3271 74.9834 23.1953 74.4971 23.1953C74.0693 23.1953 73.7324 23.2979 73.4863 23.5029C73.2461 23.708 73.126 23.9893 73.126 24.3467H70.5859C70.5859 23.7959 70.7559 23.2861 71.0957 22.8174C71.4355 22.3486 71.916 21.9824 72.5371 21.7188C73.1582 21.4492 73.8555 21.3145 74.6289 21.3145C75.8008 21.3145 76.7295 21.6104 77.415 22.2021C78.1064 22.7881 78.4521 23.6143 78.4521 24.6807V28.8027C78.458 29.7051 78.584 30.3877 78.8301 30.8506V31H76.2637ZM74.1631 29.2334C74.5381 29.2334 74.8838 29.1514 75.2002 28.9873C75.5166 28.8174 75.751 28.5918 75.9033 28.3105V26.6758H74.9541C73.6826 26.6758 73.0059 27.1152 72.9238 27.9941L72.915 28.1436C72.915 28.46 73.0264 28.7207 73.249 28.9258C73.4717 29.1309 73.7764 29.2334 74.1631 29.2334ZM83.084 31H80.5352V17.5H83.084V31ZM89.1396 29.1279C89.6084 29.1279 89.9893 28.999 90.2822 28.7412C90.5752 28.4834 90.7275 28.1406 90.7393 27.7129H93.1211C93.1152 28.3574 92.9395 28.9492 92.5938 29.4883C92.248 30.0215 91.7734 30.4375 91.1699 30.7363C90.5723 31.0293 89.9102 31.1758 89.1836 31.1758C87.8242 31.1758 86.752 30.7451 85.9668 29.8838C85.1816 29.0166 84.7891 27.8213 84.7891 26.2979V26.1309C84.7891 24.666 85.1787 23.4971 85.958 22.624C86.7373 21.751 87.8066 21.3145 89.166 21.3145C90.3555 21.3145 91.3076 21.6543 92.0225 22.334C92.7432 23.0078 93.1094 23.9072 93.1211 25.0322H90.7393C90.7275 24.54 90.5752 24.1416 90.2822 23.8369C89.9893 23.5264 89.6025 23.3711 89.1221 23.3711C88.5303 23.3711 88.082 23.5879 87.7773 24.0215C87.4785 24.4492 87.3291 25.1465 87.3291 26.1133V26.377C87.3291 27.3555 87.4785 28.0586 87.7773 28.4863C88.0762 28.9141 88.5303 29.1279 89.1396 29.1279ZM100.267 30.0332C99.6396 30.7949 98.7725 31.1758 97.665 31.1758C96.6455 31.1758 95.8662 30.8828 95.3271 30.2969C94.7939 29.7109 94.5215 28.8525 94.5098 27.7217V21.4902H97.0498V27.6338C97.0498 28.624 97.501 29.1191 98.4033 29.1191C99.2646 29.1191 99.8564 28.8203 100.179 28.2227V21.4902H102.728V31H100.337L100.267 30.0332ZM107.324 31H104.775V17.5H107.324V31ZM114.936 31C114.818 30.7715 114.733 30.4873 114.681 30.1475C114.065 30.833 113.266 31.1758 112.281 31.1758C111.35 31.1758 110.576 30.9062 109.961 30.3672C109.352 29.8281 109.047 29.1484 109.047 28.3281C109.047 27.3203 109.419 26.5469 110.163 26.0078C110.913 25.4688 111.994 25.1963 113.406 25.1904H114.575V24.6455C114.575 24.2061 114.461 23.8545 114.232 23.5908C114.01 23.3271 113.655 23.1953 113.169 23.1953C112.741 23.1953 112.404 23.2979 112.158 23.5029C111.918 23.708 111.798 23.9893 111.798 24.3467H109.258C109.258 23.7959 109.428 23.2861 109.768 22.8174C110.107 22.3486 110.588 21.9824 111.209 21.7188C111.83 21.4492 112.527 21.3145 113.301 21.3145C114.473 21.3145 115.401 21.6104 116.087 22.2021C116.778 22.7881 117.124 23.6143 117.124 24.6807V28.8027C117.13 29.7051 117.256 30.3877 117.502 30.8506V31H114.936ZM112.835 29.2334C113.21 29.2334 113.556 29.1514 113.872 28.9873C114.188 28.8174 114.423 28.5918 114.575 28.3105V26.6758H113.626C112.354 26.6758 111.678 27.1152 111.596 27.9941L111.587 28.1436C111.587 28.46 111.698 28.7207 111.921 28.9258C112.144 29.1309 112.448 29.2334 112.835 29.2334ZM123.25 25.8672L121.879 27.3438V31H119.242V18.2031H121.879V24.0039L123.039 22.4131L126.3 18.2031H129.543L124.999 23.8896L129.675 31H126.537L123.25 25.8672ZM133.182 31H130.633V21.4902H133.182V31ZM130.483 19.0293C130.483 18.6484 130.609 18.335 130.861 18.0889C131.119 17.8428 131.468 17.7197 131.907 17.7197C132.341 17.7197 132.687 17.8428 132.944 18.0889C133.202 18.335 133.331 18.6484 133.331 19.0293C133.331 19.416 133.199 19.7324 132.936 19.9785C132.678 20.2246 132.335 20.3477 131.907 20.3477C131.479 20.3477 131.134 20.2246 130.87 19.9785C130.612 19.7324 130.483 19.416 130.483 19.0293Z" fill="#A76B6B"/>
</svg>
