<svg width="578" height="689" viewBox="0 0 578 689" fill="none" xmlns="http://www.w3.org/2000/svg">
<g id="image" filter="url(#filter0_i)">
<g id="fabrica">
<g id="Page 1">
<g id="067   Lathe">
<path id="Rectangle path" d="M259.384 377.693L163.313 354.719L153.548 396.953L249.619 419.927L259.384 377.693Z" fill="#C03A2B"/>
<path id="Rectangle path_2" d="M254.626 408.969L153.868 384.874L146.767 415.59L247.524 439.685L254.626 408.969Z" fill="#802F34"/>
<path id="Shape" d="M282.816 383.297L280.153 394.815L263.194 448.019C262.598 449.889 261.276 451.077 260.101 450.796L236.376 445.123C235.082 444.813 234.43 442.843 234.921 440.723L250.011 375.452L282.816 383.297Z" fill="#E64C3C"/>
<path id="Shape_2" d="M212.911 322.01L222.284 324.252C223.578 324.561 224.23 326.531 223.74 328.652L217.526 355.528L203.467 352.166L209.68 325.29C210.171 323.169 211.617 321.701 212.911 322.01Z" fill="#A5A5A4"/>
<path id="Shape_3" d="M251.29 327.137L234.888 323.214C233.594 322.905 232.942 320.935 233.432 318.814C233.923 316.694 235.369 315.226 236.663 315.535L253.066 319.458C254.36 319.767 255.011 321.737 254.521 323.857C254.031 325.978 252.584 327.446 251.29 327.137Z" fill="#D1D4D1"/>
<path id="Shape_4" d="M265.101 310.181L253.307 314.447C252.282 314.816 251.373 316.088 251.009 317.657L248.66 327.816C248.298 329.386 248.555 330.937 249.31 331.732L258 340.896L262.686 342.017L269.788 311.301L265.101 310.181Z" fill="#A5A5A4"/>
<path id="Shape_5" d="M292.332 320.744L278.129 382.176L250.011 375.452L265.101 310.181L290.877 316.345C292.171 316.654 292.822 318.624 292.332 320.744Z" fill="#E64C3C"/>
<path id="Shape_6" d="M219.23 380.246L280.153 394.815L284.591 375.618C285.081 373.497 284.43 371.527 283.136 371.218L168.319 343.761L162.993 366.797L219.23 380.246Z" fill="#802F34"/>
<path id="Shape_7" d="M230.874 415.445L186.353 404.798C185.059 404.488 183.612 405.957 183.122 408.077C182.632 410.198 183.284 412.167 184.578 412.477L229.099 423.124C230.393 423.433 231.839 421.965 232.329 419.844C232.82 417.724 232.168 415.754 230.874 415.445Z" fill="#CC4B4C"/>
<path id="Shape_8" d="M176.98 402.556L172.294 401.436C171 401.126 169.553 402.594 169.063 404.715C168.573 406.835 169.224 408.805 170.519 409.115L175.205 410.235C176.499 410.545 177.946 409.077 178.436 406.956C178.926 404.836 178.274 402.866 176.98 402.556Z" fill="#CC4B4C"/>
<path id="Rectangle path_3" d="M223.1 352.809L199.668 347.206C198.374 346.896 196.927 348.364 196.437 350.485L191.111 373.522C190.621 375.642 191.273 377.612 192.567 377.922L215.999 383.525C217.293 383.835 218.739 382.366 219.23 380.246L224.556 357.209C225.046 355.089 224.394 353.119 223.1 352.809Z" fill="#D1D4D1"/>
<path id="Shape_9" d="M213.407 362.647L204.035 360.405C202.74 360.096 201.294 361.564 200.804 363.684C200.313 365.805 200.965 367.775 202.259 368.084L211.632 370.326C212.926 370.635 214.373 369.167 214.863 367.046C215.353 364.926 214.702 362.956 213.407 362.647Z" fill="#E6E7E8"/>
<path id="Shape_10" d="M146.91 350.796L144.247 362.315L136.117 417.63C135.831 419.574 136.495 421.237 137.669 421.518L154.364 425.51C155.658 425.82 157.105 424.352 157.595 422.231L172.685 356.96L146.91 350.796Z" fill="#E64C3C"/>
<path id="Rectangle path_4" d="M183.337 310.886L157.562 304.722L144.247 362.315L170.022 368.479L183.337 310.886Z" fill="#C03A2B"/>
<path id="Shape_11" d="M194.805 293.37L187.704 324.086C187.214 326.206 185.767 327.674 184.473 327.365L154.011 320.08L162.001 285.525C162.491 283.405 163.937 281.936 165.231 282.246L193.35 288.97C194.644 289.28 195.296 291.249 194.805 293.37Z" fill="#E64C3C"/>
<path id="Shape_12" d="M194.805 293.37L201.835 295.051C203.129 295.36 203.781 297.33 203.29 299.451L197.964 322.488C197.474 324.608 196.028 326.076 194.734 325.767L187.704 324.086L194.805 293.37Z" fill="#C03A2B"/>
</g>
</g>
</g>
<g id="Group">
<path id="Vector" d="M287.017 151.331L294.238 175.898L289.829 178.931L286.829 180.994L278.84 153.817L287.017 151.331Z" fill="#F9F6F9"/>
<path id="Vector_2" d="M282.15 152.811L289.829 178.931L286.829 180.994L278.84 153.817L282.15 152.811Z" fill="#E2DFE2"/>
<path id="Vector_3" d="M293.841 154.495L274.842 160.272C273.251 160.756 271.575 159.838 271.1 158.221L268.235 148.473L292.996 140.944L295.862 150.692C296.337 152.308 295.432 154.011 293.841 154.495Z" fill="#C3BEC6"/>
<path id="Vector_4" d="M278.054 159.295L274.842 160.272C273.251 160.755 271.576 159.838 271.1 158.221L268.235 148.473L274.328 146.62L278.054 159.295Z" fill="#B4ACB7"/>
<path id="Vector_5" d="M285.949 177.995C285.205 178.221 284.367 178.02 283.802 177.406C283.007 176.541 283.052 175.185 283.904 174.377L290.868 167.764C291.72 166.956 293.054 167.001 293.849 167.866C294.644 168.73 294.599 170.086 293.747 170.895L286.783 177.507C286.537 177.74 286.251 177.903 285.949 177.995V177.995Z" fill="#E2DFE2"/>
<path id="Vector_6" d="M283.74 170.48C282.996 170.706 282.158 170.506 281.593 169.891C280.798 169.027 280.843 167.671 281.695 166.862L288.659 160.25C289.511 159.441 290.845 159.487 291.64 160.351C292.435 161.215 292.39 162.572 291.538 163.38L284.574 169.992C284.328 170.226 284.042 170.388 283.74 170.48V170.48Z" fill="#E2DFE2"/>
<path id="Vector_7" d="M240.571 168.558C244.877 183.124 248.962 197.761 252.83 212.464C253.476 214.921 252.473 217.534 250.34 218.866C244.772 222.345 238.721 224.185 232.189 224.385C229.687 224.462 227.437 222.839 226.651 220.424C221.868 205.722 217.312 190.952 212.982 176.115C210.279 166.87 207.668 157.596 205.143 148.297C204.108 144.488 203.089 140.674 202.084 136.855C201.438 134.398 202.443 131.784 204.576 130.45C210.145 126.973 216.195 125.133 222.726 124.931C225.229 124.855 227.477 126.48 228.263 128.895C229.452 132.55 230.627 136.207 231.786 139.871C234.811 149.403 237.739 158.964 240.571 168.558V168.558Z" fill="#C3BEC6"/>
<path id="Vector_8" d="M221.011 152.508C220.971 152.52 220.932 152.532 220.892 152.545C217.605 153.558 215.743 157.092 216.646 160.458C219.536 171.238 222.682 181.941 226.084 192.566C227.146 195.883 230.61 197.798 233.905 196.81C233.944 196.798 233.984 196.786 234.024 196.773C237.311 195.76 239.173 192.226 238.27 188.86C235.38 178.08 232.234 167.377 228.832 156.752C227.769 153.435 224.306 151.521 221.011 152.508V152.508Z" fill="#B4ACB7"/>
<path id="Vector_9" d="M315.513 236.446L323.886 241.035L353.281 232.097C353.281 232.097 353.9 223.739 352.826 217.795C352.598 216.53 351.939 215.388 350.962 214.572L347.335 211.541C345.961 210.393 344.113 210.015 342.407 210.534L223.916 246.563C222.21 247.082 220.869 248.429 220.34 250.157L218.944 254.714C218.568 255.942 218.634 257.264 219.125 258.449C221.436 264.017 226.463 270.658 226.463 270.658L255.858 261.72L260.381 253.21L315.513 236.446Z" fill="#665E66"/>
<g id="Group_2">
<path id="Vector_10" d="M234.091 243.469L223.916 246.563C222.21 247.081 220.869 248.429 220.34 250.156L218.944 254.714C218.568 255.942 218.634 257.264 219.126 258.449C221.436 264.017 226.464 270.658 226.464 270.658L239.368 266.734C239.368 266.734 234.341 260.093 232.03 254.525C231.539 253.34 231.473 252.018 231.849 250.79L234.091 243.469Z" fill="#544F57"/>
<path id="Vector_11" d="M315.513 236.446L323.886 241.035L336.791 237.111L328.417 232.522L315.513 236.446Z" fill="#544F57"/>
</g>
<path id="Vector_12" d="M212.297 220.223L213.896 225.663C214.337 227.163 215.456 228.359 216.908 228.884L230.733 233.876L233.597 243.619L289.16 226.724L286.296 216.981C286.296 216.981 313.201 205.874 331.468 191.677C333.057 190.441 333.716 188.328 333.144 186.382L332.361 183.716C331.596 181.117 328.902 179.64 326.342 180.418L215.548 214.107C212.988 214.885 211.533 217.624 212.297 220.223V220.223Z" fill="#78D0B1"/>
<path id="Vector_13" d="M230.725 233.872L286.294 216.975L287.793 222.072L232.223 238.969L230.725 233.872Z" fill="#66B49D"/>
<path id="Vector_14" d="M239.338 231.258L242.202 241.003L233.597 243.619L230.733 233.874L216.908 228.882C215.457 228.36 214.339 227.161 213.898 225.661L212.299 220.222C211.534 217.622 212.99 214.883 215.547 214.105L224.152 211.489C221.592 212.267 220.137 215.006 220.901 217.606L222.5 223.045C222.941 224.545 224.06 225.744 225.511 226.266L239.338 231.258Z" fill="#66B49D"/>
<path id="Vector_15" d="M240.572 168.558C231.411 171.2 222.213 173.719 212.982 176.115C210.28 166.87 207.668 157.596 205.143 148.297C214.011 145.44 222.892 142.632 231.786 139.871C234.811 149.403 237.739 158.964 240.572 168.558Z" fill="#B4ACB7"/>
<path id="Vector_16" d="M239.959 120.282C238.126 124.338 236.186 128.435 234.213 132.535C233.558 133.896 232.378 134.92 230.953 135.362C220.155 138.712 209.377 142.131 198.62 145.62C195.95 146.486 194.374 149.299 195.024 152.067C196.595 158.755 198.683 163.785 202.139 170.048C203.321 172.19 205.774 173.266 208.119 172.666C223.279 168.791 238.34 164.582 253.303 160.038C268.505 155.421 283.605 150.459 298.604 145.152C300.888 144.344 302.358 142.076 302.19 139.625C301.585 130.803 300.256 124.702 296.615 115.92C295.488 113.204 294.228 110.528 292.834 107.893C291.677 105.706 289.191 104.607 286.819 105.213C272.223 108.944 257.718 112.986 243.304 117.338C241.825 117.784 240.604 118.857 239.959 120.282V120.282Z" fill="#78D0B1"/>
<g id="Group_3">
<path id="Vector_17" d="M213.698 168.023C210.243 161.76 207.752 155.362 206.181 148.674C205.646 146.394 206.54 143.808 208.363 142.482C205.114 143.522 201.866 144.566 198.62 145.619C195.95 146.485 194.374 149.298 195.024 152.066C196.595 158.754 198.684 163.784 202.139 170.047C203.321 172.189 205.774 173.265 208.119 172.665C210.929 171.947 213.735 171.213 216.538 170.472C215.363 170.036 214.342 169.189 213.698 168.023V168.023Z" fill="#66B49D"/>
<path id="Vector_18" d="M242.109 131.969C243.535 131.527 244.715 130.502 245.37 129.142C247.343 125.041 249.283 120.944 251.116 116.889C251.392 116.277 251.701 115.48 252.08 114.732C249.151 115.589 246.225 116.455 243.304 117.336C241.825 117.783 240.603 118.856 239.959 120.281C238.126 124.337 236.186 128.433 234.213 132.534C233.619 133.769 232.59 134.721 231.34 135.219C234.935 134.153 238.528 133.08 242.109 131.969V131.969Z" fill="#66B49D"/>
</g>
<g id="Group_4">
<path id="Vector_19" d="M291.324 127.303C289.742 127.784 287.961 127.291 286.85 125.913C285.375 124.082 285.64 121.382 287.444 119.881L306.034 104.412C307.837 102.911 310.495 103.179 311.97 105.01C313.446 106.84 313.181 109.541 311.377 111.041L292.787 126.511C292.342 126.882 291.843 127.145 291.324 127.303V127.303Z" fill="#665E66"/>
<path id="Vector_20" d="M311.377 111.041L292.788 126.51C292.342 126.882 291.844 127.146 291.324 127.304C289.78 127.774 288.045 127.314 286.936 126.009C287.424 125.792 287.891 125.503 288.323 125.145L312.177 105.293C313.416 107.109 313.09 109.617 311.377 111.041V111.041Z" fill="#544F57"/>
<path id="Vector_21" d="M310.512 113.87C313.853 112.854 315.752 109.28 314.755 105.887C313.757 102.493 310.24 100.566 306.899 101.582C303.559 102.598 301.659 106.172 302.656 109.565C303.654 112.959 307.171 114.886 310.512 113.87Z" fill="#DA4A54"/>
<path id="Vector_22" d="M312.486 112.863C311.907 113.301 311.245 113.646 310.512 113.869C307.171 114.885 303.654 112.957 302.657 109.566C301.659 106.172 303.558 102.597 306.9 101.581C307.633 101.358 308.373 101.276 309.093 101.32C307.032 102.889 306.044 105.649 306.823 108.299C307.602 110.949 309.917 112.702 312.486 112.863V112.863Z" fill="#D82E3D"/>
</g>
<g id="Group_5">
<g id="Group_6">
<path id="Vector_23" d="M258.427 148.896C257.185 149.324 255.93 149.706 254.661 150.041C252.449 150.625 250.15 149.365 249.416 147.167C248.995 145.906 248.62 144.631 248.292 143.342C247.719 141.094 248.96 138.758 251.125 138.011C252.341 137.592 253.57 137.217 254.811 136.887C257.083 136.284 259.411 137.559 260.161 139.819C260.572 141.054 260.938 142.303 261.26 143.565C261.833 145.813 260.592 148.149 258.427 148.896V148.896Z" fill="#FFEF4A"/>
<path id="Vector_24" d="M275.772 143.622C274.53 144.05 273.275 144.432 272.006 144.767C269.794 145.351 267.495 144.091 266.761 141.893C266.34 140.632 265.965 139.357 265.637 138.068C265.064 135.82 266.305 133.484 268.47 132.737C269.686 132.318 270.915 131.943 272.156 131.613C274.428 131.009 276.756 132.285 277.506 134.545C277.917 135.78 278.283 137.029 278.605 138.291C279.178 140.538 277.936 142.875 275.772 143.622Z" fill="#DA4A54"/>
</g>
<g id="Group_7">
<path id="Vector_25" d="M258.201 148.966C258.238 148.954 258.277 148.945 258.315 148.934C257.109 149.348 255.89 149.716 254.662 150.041C252.45 150.625 250.151 149.365 249.416 147.167C248.996 145.905 248.621 144.63 248.292 143.34C247.719 141.093 248.961 138.756 251.126 138.011C252.33 137.595 253.551 137.223 254.782 136.897C254.742 136.909 254.704 136.921 254.664 136.935C252.499 137.68 251.258 140.017 251.833 142.263C252.159 143.554 252.534 144.829 252.958 146.09C253.689 148.289 255.988 149.549 258.201 148.966V148.966Z" fill="#FFD321"/>
<path id="Vector_26" d="M275.545 143.691C275.583 143.68 275.622 143.671 275.659 143.66C274.454 144.074 273.238 144.441 272.007 144.767C269.795 145.351 267.496 144.091 266.761 141.893C266.341 140.631 265.966 139.356 265.636 138.066C265.064 135.819 266.306 133.482 268.471 132.737C269.675 132.32 270.896 131.949 272.127 131.623C272.086 131.635 272.049 131.646 272.009 131.661C269.844 132.406 268.602 134.743 269.178 136.989C269.507 138.279 269.882 139.554 270.303 140.816C271.034 143.015 273.333 144.275 275.545 143.691V143.691Z" fill="#D82E3D"/>
</g>
</g>
</g>
<g id="milling-machine 1" clip-path="url(#clip0)">
<g id="025   Milling">
<path id="Shape_13" d="M448.926 347.4L424.556 395.936L429.168 404.04L438.423 402.899L462.793 354.363L448.926 347.4Z" fill="#A5A5A4"/>
<path id="Shape_14" d="M455.918 316.184L440.881 317.315L443.043 351.681C443.097 352.598 443.632 353.418 444.451 353.835L460.306 361.796C461.129 362.203 462.106 362.143 462.874 361.638L491.727 342.846C461.231 320.588 469.017 326.407 455.918 316.184Z" fill="#BDC3C7"/>
<path id="Shape_15" d="M455.757 411.602L473.091 420.306C474.368 420.947 474.883 422.501 474.242 423.778L461.477 449.201C460.836 450.478 459.281 450.993 458.005 450.352L328.577 385.364C327.3 384.723 326.785 383.169 327.426 381.893L340.191 356.469C340.832 355.193 342.387 354.678 343.663 355.318L360.997 364.022C362.786 364.979 363.85 366.894 363.719 368.919C363.518 378.31 378.598 393.117 400.254 403.991C421.91 414.865 442.792 418.115 450.204 412.345C451.749 411.03 453.921 410.739 455.757 411.602Z" fill="#A6EDBA"/>
<path id="Shape_16" d="M455.83 368.23L450.028 379.787L431.519 382.068L437.321 370.512L455.83 368.23Z" fill="#7F8284"/>
<path id="Shape_17" d="M444.225 391.343L438.423 402.899L429.168 404.04L424.556 395.936L425.716 393.625L444.225 391.343Z" fill="#7F8284"/>
<g id="Group_8">
<path id="Shape_18" d="M415.311 391.294C414.695 390.989 414.225 390.451 414.006 389.8L404.801 362.026C404.509 361.145 404.709 360.176 405.326 359.483C405.942 358.79 406.882 358.478 407.79 358.666C408.699 358.853 409.439 359.511 409.73 360.392L418.936 388.166C419.271 389.162 418.97 390.261 418.174 390.947C417.379 391.634 416.247 391.771 415.311 391.294Z" fill="#A6EDBA"/>
<path id="Shape_19" d="M447.668 407.541C446.726 407.075 446.16 406.085 446.235 405.037C446.311 403.989 447.013 403.091 448.011 402.765L475.785 393.559C476.666 393.267 477.635 393.467 478.328 394.084C479.021 394.7 479.333 395.64 479.145 396.549C478.958 397.457 478.3 398.197 477.419 398.489L449.645 407.694C448.992 407.908 448.28 407.853 447.668 407.541Z" fill="#A6EDBA"/>
<path id="Oval" d="M402.653 353.105C403.929 353.746 405.484 353.231 406.125 351.954C406.765 350.678 406.25 349.123 404.974 348.483C403.697 347.842 402.143 348.357 401.502 349.633C400.861 350.91 401.376 352.464 402.653 353.105Z" fill="#A6EDBA"/>
<path id="Oval_2" d="M485.857 394.883C487.133 395.524 488.687 395.008 489.328 393.732C489.969 392.456 489.454 390.901 488.178 390.26C486.901 389.619 485.347 390.135 484.706 391.411C484.065 392.688 484.58 394.242 485.857 394.883Z" fill="#A6EDBA"/>
<path id="Shape_20" d="M423.434 375.115C422.733 374.759 422.231 374.103 422.073 373.332L418.63 357.134C418.35 356.198 418.62 355.185 419.329 354.513C420.038 353.842 421.065 353.627 421.984 353.958C422.902 354.289 423.556 355.109 423.675 356.078L427.117 372.276C427.317 373.245 426.947 374.243 426.163 374.847C425.38 375.451 424.32 375.555 423.434 375.115Z" fill="#A6EDBA"/>
<path id="Shape_21" d="M455.791 391.362C454.909 390.914 454.36 390.002 454.377 389.013C454.393 388.024 454.972 387.131 455.869 386.713L470.916 379.799C471.54 379.507 472.255 379.477 472.902 379.715C473.548 379.953 474.073 380.439 474.36 381.065C474.942 382.36 474.372 383.882 473.082 384.475L458.035 391.389C457.322 391.722 456.496 391.712 455.791 391.362V391.362Z" fill="#A6EDBA"/>
<path id="Shape_22" d="M382.715 365.493C380.686 365.221 379.008 363.778 378.436 361.812C377.863 359.846 378.504 357.728 380.071 356.409C385.83 351.86 386.963 343.571 382.635 337.642C375.253 327.349 377.196 313.082 387.062 305.138C392.835 300.596 393.969 292.296 389.627 286.371C382.258 276.074 384.2 261.818 394.054 253.867C396.245 252.034 399.506 252.325 401.339 254.515C403.105 256.717 402.781 259.928 400.61 261.731C394.838 266.281 393.713 274.589 398.068 280.51C405.411 290.813 403.46 305.052 393.618 313.002C387.871 317.559 386.74 325.838 391.054 331.769C398.436 342.063 396.493 356.33 386.627 364.274C385.546 365.201 384.131 365.642 382.715 365.493Z" fill="#A6EDBA"/>
</g>
<path id="Shape_23" d="M410.776 336.926C408.773 335.91 407.656 333.716 408.01 331.498C408.365 329.28 410.111 327.544 412.331 327.202C412.956 327.053 417.631 325.812 418.374 316.838C418.622 313.989 421.132 311.881 423.98 312.128C426.829 312.376 428.937 314.886 428.69 317.734C427.167 335.578 414.28 337.383 413.736 337.429C412.722 337.558 411.692 337.383 410.776 336.926V336.926Z" fill="#A6EDBA"/>
<path id="Shape_24" d="M355.856 326.714C357.729 325.41 360.235 325.488 362.024 326.906C363.812 328.324 364.46 330.747 363.617 332.868C363.339 333.423 362.267 338.151 369.776 343.137C372.172 344.732 372.822 347.967 371.227 350.363C369.633 352.759 366.398 353.408 364.002 351.814C349.11 341.819 353.676 329.613 353.92 329.128C354.287 328.134 354.966 327.287 355.856 326.714V326.714Z" fill="#A6EDBA"/>
<path id="Shape_25" d="M341.303 383.073L338.992 381.912C337.715 381.271 337.2 379.717 337.841 378.44C338.482 377.164 340.036 376.649 341.313 377.29L343.624 378.45C344.9 379.091 345.416 380.645 344.775 381.922C344.134 383.198 342.579 383.714 341.303 383.073Z" fill="#4E4D4C"/>
<path id="Shape_26" d="M366.726 395.838L350.548 387.715C349.271 387.074 348.756 385.519 349.397 384.243C350.038 382.966 351.592 382.451 352.869 383.092L369.047 391.216C370.324 391.857 370.839 393.411 370.198 394.687C369.557 395.964 368.003 396.479 366.726 395.838Z" fill="#4E4D4C"/>
<path id="Shape_27" d="M491.727 342.846L501.011 324.356L450.165 298.826L440.881 317.315L491.727 342.846Z" fill="#3B97D3"/>
<path id="Rectangle path_5" d="M518.38 312.82L449.043 278.005C447.767 277.364 446.212 277.879 445.572 279.156L437.448 295.334C436.807 296.611 437.322 298.165 438.599 298.806L507.935 333.621C509.212 334.262 510.766 333.747 511.407 332.47L519.53 316.292C520.171 315.015 519.656 313.461 518.38 312.82Z" fill="#2980BA"/>
<path id="Shape_28" d="M458.288 282.647L454.807 289.581C454.166 290.857 452.611 291.372 451.335 290.731C450.058 290.091 449.543 288.536 450.184 287.26L453.666 280.326L458.288 282.647Z" fill="#285680"/>
<path id="Shape_29" d="M467.533 287.289L464.052 294.223C463.411 295.499 461.856 296.014 460.58 295.373C459.303 294.733 458.788 293.178 459.429 291.902L462.911 284.968L467.533 287.289Z" fill="#285680"/>
<path id="Shape_30" d="M476.778 291.931L473.296 298.865C472.655 300.141 471.101 300.656 469.825 300.015C468.548 299.374 468.033 297.82 468.674 296.544L472.155 289.61L476.778 291.931Z" fill="#285680"/>
<path id="Shape_31" d="M486.023 296.573L482.541 303.507C481.9 304.783 480.346 305.298 479.07 304.657C477.793 304.016 477.278 302.462 477.919 301.186L481.4 294.252L486.023 296.573Z" fill="#285680"/>
<path id="Shape_32" d="M495.268 301.215L491.786 308.149C491.145 309.425 489.591 309.94 488.314 309.299C487.038 308.658 486.523 307.104 487.164 305.828L490.645 298.894L495.268 301.215Z" fill="#285680"/>
<path id="Shape_33" d="M504.512 305.857L501.031 312.791C500.39 314.067 498.836 314.582 497.559 313.941C496.283 313.3 495.768 311.746 496.409 310.47L499.89 303.536L504.512 305.857Z" fill="#285680"/>
<path id="Shape_34" d="M513.757 310.499L510.276 317.433C509.635 318.709 508.081 319.224 506.804 318.583C505.528 317.942 505.012 316.388 505.653 315.112L509.135 308.178L513.757 310.499Z" fill="#285680"/>
</g>
</g>
</g>
<defs>
<filter id="filter0_i" x="-6.10352e-05" y="0" width="700" height="704" filterUnits="userSpaceOnUse" color-interpolation-filters="sRGB">
<feFlood flood-opacity="0" result="BackgroundImageFix"/>
<feBlend mode="normal" in="SourceGraphic" in2="BackgroundImageFix" result="shape"/>
<feColorMatrix in="SourceAlpha" type="matrix" values="0 0 0 0 0 0 0 0 0 0 0 0 0 0 0 0 0 0 127 0" result="hardAlpha"/>
<feOffset dy="4"/>
<feGaussianBlur stdDeviation="2"/>
<feComposite in2="hardAlpha" operator="arithmetic" k2="-1" k3="1"/>
<feColorMatrix type="matrix" values="0 0 0 0 0 0 0 0 0 0 0 0 0 0 0 0 0 0 0.25 0"/>
<feBlend mode="normal" in2="shape" result="effect1_innerShadow"/>
</filter>
<clipPath id="clip0">
<rect width="150" height="150" fill="white" transform="translate(393.574 250.153) rotate(26.6619)"/>
</clipPath>
</defs>
</svg>
