<svg width="235" height="70" viewBox="0 0 235 70" fill="none" xmlns="http://www.w3.org/2000/svg">
<path d="M8.1025 53.7114C8.1025 40.2617 1.13556 31.0256 1.13556 24.5447C1.13556 18.0639 4.86112 4.45279 34.6753 4.45279C64.4895 4.45279 68.8645 22.7636 68.8645 29.892C68.8664 63.2722 8.1025 77.5308 8.1025 53.7114V53.7114Z" fill="#EFEFEF"/>
<path d="M45.6944 40.3472C48.6476 40.3472 51.0417 37.9532 51.0417 35C51.0417 32.0468 48.6476 29.6528 45.6944 29.6528C42.7413 29.6528 40.3472 32.0468 40.3472 35C40.3472 37.9532 42.7413 40.3472 45.6944 40.3472Z" fill="#2FDF84"/>
<path d="M44.7222 35C44.7222 32.828 46.0231 30.9672 47.8819 30.1311C47.2131 29.8297 46.4761 29.6528 45.6944 29.6528C42.7408 29.6528 40.3472 32.0464 40.3472 35C40.3472 37.9536 42.7408 40.3472 45.6944 40.3472C46.4761 40.3472 47.2131 40.1703 47.8819 39.8689C46.0231 39.0328 44.7222 37.1719 44.7222 35Z" fill="#00B871"/>
<path d="M36.4583 11.6667H37.4306V14.5833H36.4583V11.6667Z" fill="black"/>
<path d="M17.0139 11.6667H17.9861V14.5833H17.0139V11.6667Z" fill="black"/>
<path d="M36.4583 13.125C34.8444 13.125 33.5417 14.4278 33.5417 16.0417C33.5417 17.1111 32.6667 17.9861 31.5972 17.9861H22.8472C21.7778 17.9861 20.9028 17.1111 20.9028 16.0417C20.9028 14.4278 19.6 13.125 17.9861 13.125H36.4583Z" fill="#2FDF84"/>
<path d="M41.3194 16.9361V53.0639C41.3194 55.1639 39.6278 56.875 37.5667 56.875H16.8778C14.8167 56.875 13.125 55.1639 13.125 53.0639V16.9361C13.125 14.8361 14.8167 13.125 16.8778 13.125H17.9861C19.6 13.125 20.9028 14.4278 20.9028 16.0417C20.9028 17.1111 21.7778 17.9861 22.8472 17.9861H31.5972C32.6667 17.9861 33.5417 17.1111 33.5417 16.0417C33.5417 14.4278 34.8444 13.125 36.4583 13.125H37.5667C39.6278 13.125 41.3194 14.8361 41.3194 16.9361Z" fill="#F3F3F1"/>
<path d="M17.5 53.0639V16.9361C17.5 15.4719 18.3322 14.2119 19.5281 13.5742C19.0808 13.2942 18.5539 13.125 17.9861 13.125H16.8778C14.8167 13.125 13.125 14.8361 13.125 16.9361V53.0639C13.125 55.1639 14.8167 56.875 16.8778 56.875H21.2528C19.1917 56.875 17.5 55.1639 17.5 53.0639Z" fill="#D5DBE1"/>
<path d="M53.6861 12.0886C52.0781 12.0886 50.7695 10.78 50.7695 9.17195C50.7695 7.56389 52.0781 6.25528 53.6861 6.25528C55.2942 6.25528 56.6028 7.56389 56.6028 9.17195C56.6028 10.78 55.2961 12.0886 53.6861 12.0886ZM53.6861 8.19972C53.1514 8.19972 52.7139 8.63528 52.7139 9.17195C52.7139 9.70861 53.1514 10.1442 53.6861 10.1442C54.2208 10.1442 54.6583 9.70861 54.6583 9.17195C54.6583 8.63528 54.2228 8.19972 53.6861 8.19972Z" fill="#A4AFC1"/>
<path d="M49.7762 51.2682L51.1512 49.8932L53.901 52.6431L52.5261 54.018L49.7762 51.2682Z" fill="#A4AFC1"/>
<path d="M57.6797 59.1504L59.0546 57.7755L61.8045 60.5253L60.4295 61.9003L57.6797 59.1504Z" fill="#A4AFC1"/>
<path d="M49.4298 60.5228L52.1796 57.7729L53.5546 59.1478L50.8047 61.8977L49.4298 60.5228Z" fill="#A4AFC1"/>
<path d="M57.3373 52.6185L60.0871 49.8687L61.4621 51.2436L58.7122 53.9935L57.3373 52.6185Z" fill="#A4AFC1"/>
<path d="M45.6944 41.8056C41.9417 41.8056 38.8889 38.7528 38.8889 35C38.8889 31.2472 41.9417 28.1944 45.6944 28.1944C49.4472 28.1944 52.5 31.2472 52.5 35C52.5 38.7528 49.4472 41.8056 45.6944 41.8056ZM45.6944 31.1111C43.5497 31.1111 41.8056 32.8553 41.8056 35C41.8056 37.1447 43.5497 38.8889 45.6944 38.8889C47.8392 38.8889 49.5833 37.1447 49.5833 35C49.5833 32.8553 47.8392 31.1111 45.6944 31.1111Z" fill="black"/>
<path d="M44.2361 40.3472H47.1528V44.2361H44.2361V40.3472Z" fill="black"/>
<path d="M44.2361 25.7639H47.1528V29.6528H44.2361V25.7639Z" fill="black"/>
<path d="M49.5912 31.0763L52.9573 29.1328L54.4156 31.6586L51.0495 33.6021L49.5912 31.0763Z" fill="black"/>
<path d="M36.9711 38.3482L40.3372 36.4047L41.7955 38.9305L38.4294 40.874L36.9711 38.3482Z" fill="black"/>
<path d="M36.9657 31.6384L38.4241 29.1126L41.7902 31.056L40.3318 33.5819L36.9657 31.6384Z" fill="black"/>
<path d="M49.581 38.9061L51.0393 36.3802L54.4054 38.3237L52.9471 40.8495L49.581 38.9061Z" fill="black"/>
<path d="M31.5972 19.4444H22.8472C20.9708 19.4444 19.4444 17.9181 19.4444 16.0417C19.4444 15.2367 18.7892 14.5833 17.9861 14.5833H17.0139V11.6667H17.9861C20.3972 11.6667 22.3611 13.6286 22.3611 16.0417C22.3611 16.31 22.5789 16.5278 22.8472 16.5278H31.5972C31.8656 16.5278 32.0833 16.31 32.0833 16.0417C32.0833 13.6286 34.0472 11.6667 36.4583 11.6667H37.4305V14.5833H36.4583C35.6553 14.5833 35 15.2367 35 16.0417C35 17.9181 33.4736 19.4444 31.5972 19.4444Z" fill="black"/>
<path d="M37.5589 58.3334H16.8856C14.0078 58.3334 11.6667 55.9728 11.6667 53.0697V16.9303C11.6667 14.0272 14.0078 11.6667 16.8856 11.6667H37.5609C40.4367 11.6667 42.7778 14.0272 42.7778 16.9303V23.7417H39.8611V16.9303C39.8611 15.6353 38.8286 14.5833 37.5589 14.5833H16.8856C15.6159 14.5833 14.5834 15.6353 14.5834 16.9303V53.0717C14.5834 54.3667 15.6159 55.4186 16.8856 55.4186H37.5609C38.8286 55.4186 39.8631 54.3667 39.8631 53.0717V46.2584H42.7778V53.0697C42.7778 55.9728 40.4367 58.3334 37.5589 58.3334Z" fill="black"/>
<path d="M8.1025 53.7114C8.1025 40.2617 1.13556 31.0256 1.13556 24.5447C1.13556 18.0639 4.86112 4.45279 34.6753 4.45279C64.4895 4.45279 68.8645 22.7636 68.8645 29.892C68.8664 63.2722 8.1025 77.5308 8.1025 53.7114V53.7114Z" fill="#EFEFEF"/>
<path d="M45.6944 40.3472C48.6476 40.3472 51.0417 37.9532 51.0417 35C51.0417 32.0468 48.6476 29.6528 45.6944 29.6528C42.7413 29.6528 40.3472 32.0468 40.3472 35C40.3472 37.9532 42.7413 40.3472 45.6944 40.3472Z" fill="#EEA7A7"/>
<path d="M44.7222 35C44.7222 32.828 46.0231 30.9672 47.8819 30.1311C47.2131 29.8297 46.4761 29.6528 45.6944 29.6528C42.7408 29.6528 40.3472 32.0464 40.3472 35C40.3472 37.9536 42.7408 40.3472 45.6944 40.3472C46.4761 40.3472 47.2131 40.1703 47.8819 39.8689C46.0231 39.0328 44.7222 37.1719 44.7222 35Z" fill="#EEA7A7"/>
<path d="M36.4583 11.6667H37.4306V14.5833H36.4583V11.6667Z" fill="black"/>
<path d="M17.0139 11.6667H17.9861V14.5833H17.0139V11.6667Z" fill="black"/>
<path d="M36.4583 13.125C34.8444 13.125 33.5417 14.4278 33.5417 16.0417C33.5417 17.1111 32.6667 17.9861 31.5972 17.9861H22.8472C21.7778 17.9861 20.9028 17.1111 20.9028 16.0417C20.9028 14.4278 19.6 13.125 17.9861 13.125H36.4583Z" fill="#EEA7A7"/>
<path d="M41.3194 16.9361V53.0639C41.3194 55.1639 39.6278 56.875 37.5667 56.875H16.8778C14.8167 56.875 13.125 55.1639 13.125 53.0639V16.9361C13.125 14.8361 14.8167 13.125 16.8778 13.125H17.9861C19.6 13.125 20.9028 14.4278 20.9028 16.0417C20.9028 17.1111 21.7778 17.9861 22.8472 17.9861H31.5972C32.6667 17.9861 33.5417 17.1111 33.5417 16.0417C33.5417 14.4278 34.8444 13.125 36.4583 13.125H37.5667C39.6278 13.125 41.3194 14.8361 41.3194 16.9361Z" fill="#F3F3F1"/>
<path d="M17.5 53.0639V16.9361C17.5 15.4719 18.3322 14.2119 19.5281 13.5742C19.0808 13.2942 18.5539 13.125 17.9861 13.125H16.8778C14.8167 13.125 13.125 14.8361 13.125 16.9361V53.0639C13.125 55.1639 14.8167 56.875 16.8778 56.875H21.2528C19.1917 56.875 17.5 55.1639 17.5 53.0639Z" fill="#D5DBE1"/>
<path d="M45.6944 41.8056C41.9417 41.8056 38.8889 38.7528 38.8889 35C38.8889 31.2472 41.9417 28.1944 45.6944 28.1944C49.4472 28.1944 52.5 31.2472 52.5 35C52.5 38.7528 49.4472 41.8056 45.6944 41.8056ZM45.6944 31.1111C43.5497 31.1111 41.8056 32.8553 41.8056 35C41.8056 37.1447 43.5497 38.8889 45.6944 38.8889C47.8392 38.8889 49.5833 37.1447 49.5833 35C49.5833 32.8553 47.8392 31.1111 45.6944 31.1111Z" fill="black"/>
<path d="M44.2361 40.3472H47.1528V44.2361H44.2361V40.3472Z" fill="black"/>
<path d="M44.2361 25.7639H47.1528V29.6528H44.2361V25.7639Z" fill="black"/>
<path d="M49.5912 31.0763L52.9573 29.1328L54.4156 31.6586L51.0495 33.6021L49.5912 31.0763Z" fill="black"/>
<path d="M36.9711 38.3482L40.3372 36.4047L41.7955 38.9305L38.4294 40.874L36.9711 38.3482Z" fill="black"/>
<path d="M36.9657 31.6384L38.4241 29.1126L41.7902 31.056L40.3318 33.5819L36.9657 31.6384Z" fill="black"/>
<path d="M49.581 38.9061L51.0393 36.3802L54.4054 38.3237L52.9471 40.8495L49.581 38.9061Z" fill="black"/>
<path d="M31.5972 19.4444H22.8472C20.9708 19.4444 19.4444 17.9181 19.4444 16.0417C19.4444 15.2367 18.7892 14.5833 17.9861 14.5833H17.0139V11.6667H17.9861C20.3972 11.6667 22.3611 13.6286 22.3611 16.0417C22.3611 16.31 22.5789 16.5278 22.8472 16.5278H31.5972C31.8656 16.5278 32.0833 16.31 32.0833 16.0417C32.0833 13.6286 34.0472 11.6667 36.4583 11.6667H37.4305V14.5833H36.4583C35.6553 14.5833 35 15.2367 35 16.0417C35 17.9181 33.4736 19.4444 31.5972 19.4444Z" fill="#EEA7A7"/>
<path d="M37.5589 58.3334H16.8856C14.0078 58.3334 11.6667 55.9728 11.6667 53.0697V16.9303C11.6667 14.0272 14.0078 11.6667 16.8856 11.6667H37.5609C40.4367 11.6667 42.7778 14.0272 42.7778 16.9303V23.7417H39.8611V16.9303C39.8611 15.6353 38.8286 14.5833 37.5589 14.5833H16.8856C15.6159 14.5833 14.5834 15.6353 14.5834 16.9303V53.0717C14.5834 54.3667 15.6159 55.4186 16.8856 55.4186H37.5609C38.8286 55.4186 39.8631 54.3667 39.8631 53.0717V46.2584H42.7778V53.0697C42.7778 55.9728 40.4367 58.3334 37.5589 58.3334Z" fill="black"/>
<path d="M104.377 39.4746C104.178 42.2285 103.158 44.3965 101.318 45.9785C99.4902 47.5605 97.0762 48.3516 94.0762 48.3516C90.7949 48.3516 88.2109 47.25 86.3242 45.0469C84.4492 42.832 83.5117 39.7969 83.5117 35.9414V34.377C83.5117 31.916 83.9453 29.748 84.8125 27.873C85.6797 25.998 86.916 24.5625 88.5215 23.5664C90.1387 22.5586 92.0137 22.0547 94.1465 22.0547C97.0996 22.0547 99.4785 22.8457 101.283 24.4277C103.088 26.0098 104.131 28.2305 104.412 31.0898H99.1387C99.0098 29.4375 98.5469 28.2422 97.75 27.5039C96.9648 26.7539 95.7637 26.3789 94.1465 26.3789C92.3887 26.3789 91.0703 27.0117 90.1914 28.2773C89.3242 29.5312 88.8789 31.4824 88.8555 34.1309V36.0645C88.8555 38.8301 89.2715 40.8516 90.1035 42.1289C90.9473 43.4062 92.2715 44.0449 94.0762 44.0449C95.7051 44.0449 96.918 43.6758 97.7148 42.9375C98.5234 42.1875 98.9863 41.0332 99.1035 39.4746H104.377ZM118.527 48C118.293 47.543 118.123 46.9746 118.018 46.2949C116.787 47.666 115.188 48.3516 113.219 48.3516C111.355 48.3516 109.809 47.8125 108.578 46.7344C107.359 45.6562 106.75 44.2969 106.75 42.6562C106.75 40.6406 107.494 39.0938 108.982 38.0156C110.482 36.9375 112.645 36.3926 115.469 36.3809H117.807V35.291C117.807 34.4121 117.578 33.709 117.121 33.1816C116.676 32.6543 115.967 32.3906 114.994 32.3906C114.139 32.3906 113.465 32.5957 112.973 33.0059C112.492 33.416 112.252 33.9785 112.252 34.6934H107.172C107.172 33.5918 107.512 32.5723 108.191 31.6348C108.871 30.6973 109.832 29.9648 111.074 29.4375C112.316 28.8984 113.711 28.6289 115.258 28.6289C117.602 28.6289 119.459 29.2207 120.83 30.4043C122.213 31.5762 122.904 33.2285 122.904 35.3613V43.6055C122.916 45.4102 123.168 46.7754 123.66 47.7012V48H118.527ZM114.326 44.4668C115.076 44.4668 115.768 44.3027 116.4 43.9746C117.033 43.6348 117.502 43.1836 117.807 42.6211V39.3516H115.908C113.365 39.3516 112.012 40.2305 111.848 41.9883L111.83 42.2871C111.83 42.9199 112.053 43.4414 112.498 43.8516C112.943 44.2617 113.553 44.4668 114.326 44.4668ZM132.168 48H127.07V21H132.168V48ZM144.279 44.2559C145.217 44.2559 145.979 43.998 146.564 43.4824C147.15 42.9668 147.455 42.2812 147.479 41.4258H152.242C152.23 42.7148 151.879 43.8984 151.188 44.9766C150.496 46.043 149.547 46.875 148.34 47.4727C147.145 48.0586 145.82 48.3516 144.367 48.3516C141.648 48.3516 139.504 47.4902 137.934 45.7676C136.363 44.0332 135.578 41.6426 135.578 38.5957V38.2617C135.578 35.332 136.357 32.9941 137.916 31.248C139.475 29.502 141.613 28.6289 144.332 28.6289C146.711 28.6289 148.615 29.3086 150.045 30.668C151.486 32.0156 152.219 33.8145 152.242 36.0645H147.479C147.455 35.0801 147.15 34.2832 146.564 33.6738C145.979 33.0527 145.205 32.7422 144.244 32.7422C143.061 32.7422 142.164 33.1758 141.555 34.043C140.957 34.8984 140.658 36.293 140.658 38.2266V38.7539C140.658 40.7109 140.957 42.1172 141.555 42.9727C142.152 43.8281 143.061 44.2559 144.279 44.2559ZM166.533 46.0664C165.279 47.5898 163.545 48.3516 161.33 48.3516C159.291 48.3516 157.732 47.7656 156.654 46.5938C155.588 45.4219 155.043 43.7051 155.02 41.4434V28.9805H160.1V41.2676C160.1 43.248 161.002 44.2383 162.807 44.2383C164.529 44.2383 165.713 43.6406 166.357 42.4453V28.9805H171.455V48H166.674L166.533 46.0664ZM180.648 48H175.551V21H180.648V48ZM195.871 48C195.637 47.543 195.467 46.9746 195.361 46.2949C194.131 47.666 192.531 48.3516 190.562 48.3516C188.699 48.3516 187.152 47.8125 185.922 46.7344C184.703 45.6562 184.094 44.2969 184.094 42.6562C184.094 40.6406 184.838 39.0938 186.326 38.0156C187.826 36.9375 189.988 36.3926 192.812 36.3809H195.15V35.291C195.15 34.4121 194.922 33.709 194.465 33.1816C194.02 32.6543 193.311 32.3906 192.338 32.3906C191.482 32.3906 190.809 32.5957 190.316 33.0059C189.836 33.416 189.596 33.9785 189.596 34.6934H184.516C184.516 33.5918 184.855 32.5723 185.535 31.6348C186.215 30.6973 187.176 29.9648 188.418 29.4375C189.66 28.8984 191.055 28.6289 192.602 28.6289C194.945 28.6289 196.803 29.2207 198.174 30.4043C199.557 31.5762 200.248 33.2285 200.248 35.3613V43.6055C200.26 45.4102 200.512 46.7754 201.004 47.7012V48H195.871ZM191.67 44.4668C192.42 44.4668 193.111 44.3027 193.744 43.9746C194.377 43.6348 194.846 43.1836 195.15 42.6211V39.3516H193.252C190.709 39.3516 189.355 40.2305 189.191 41.9883L189.174 42.2871C189.174 42.9199 189.396 43.4414 189.842 43.8516C190.287 44.2617 190.896 44.4668 191.67 44.4668ZM212.5 37.7344L209.758 40.6875V48H204.484V22.4062H209.758V34.0078L212.078 30.8262L218.6 22.4062H225.086L215.998 33.7793L225.35 48H219.074L212.5 37.7344ZM232.363 48H227.266V28.9805H232.363V48ZM226.967 24.0586C226.967 23.2969 227.219 22.6699 227.723 22.1777C228.238 21.6855 228.936 21.4395 229.814 21.4395C230.682 21.4395 231.373 21.6855 231.889 22.1777C232.404 22.6699 232.662 23.2969 232.662 24.0586C232.662 24.832 232.398 25.4648 231.871 25.957C231.355 26.4492 230.67 26.6953 229.814 26.6953C228.959 26.6953 228.268 26.4492 227.74 25.957C227.225 25.4648 226.967 24.832 226.967 24.0586Z" fill="white"/>
</svg>
