<svg width="820" height="931" viewBox="0 0 820 931" fill="none" xmlns="http://www.w3.org/2000/svg">
<g filter="url(#filter0_i)">
<path d="M371.778 531.996L234.152 499.636L220.164 559.125L357.79 591.485L371.778 531.996Z" fill="#C03A2B"/>
<path d="M364.962 576.05L220.622 542.111L210.449 585.376L354.789 619.315L364.962 576.05Z" fill="#802F34"/>
<path d="M405.345 539.889L401.53 556.113L377.236 631.053C376.382 633.688 374.488 635.36 372.805 634.965L338.818 626.974C336.965 626.538 336.031 623.763 336.733 620.776L358.351 528.839L405.345 539.889Z" fill="#E64C3C"/>
<path d="M305.204 453.565L318.631 456.722C320.485 457.158 321.419 459.933 320.716 462.919L311.815 500.776L291.674 496.04L300.576 458.184C301.278 455.197 303.35 453.129 305.204 453.565Z" fill="#A5A5A4"/>
<path d="M360.183 460.785L336.686 455.26C334.833 454.824 333.899 452.05 334.601 449.063C335.304 446.076 337.376 444.008 339.23 444.444L362.727 449.969C364.581 450.405 365.514 453.18 364.812 456.167C364.11 459.153 362.037 461.221 360.183 460.785Z" fill="#D1D4D1"/>
<path d="M379.969 436.902L363.072 442.911C361.605 443.431 360.301 445.222 359.781 447.433L356.416 461.743C355.897 463.954 356.266 466.138 357.347 467.258L369.796 480.167L376.509 481.745L386.682 438.481L379.969 436.902Z" fill="#A5A5A4"/>
<path d="M418.978 451.782L398.632 538.311L358.351 528.839L379.969 436.902L416.893 445.584C418.746 446.02 419.68 448.795 418.978 451.782Z" fill="#E64C3C"/>
<path d="M314.255 535.592L401.53 556.113L407.888 529.073C408.591 526.086 407.657 523.312 405.803 522.876L241.324 484.201L233.694 516.649L314.255 535.592Z" fill="#802F34"/>
<path d="M330.936 585.171L267.158 570.174C265.304 569.739 263.232 571.806 262.53 574.793C261.828 577.78 262.761 580.555 264.615 580.991L328.393 595.987C330.247 596.423 332.319 594.355 333.021 591.368C333.724 588.381 332.79 585.607 330.936 585.171Z" fill="#CC4B4C"/>
<path d="M253.731 567.017L247.018 565.439C245.164 565.003 243.092 567.071 242.39 570.058C241.687 573.044 242.621 575.819 244.475 576.255L251.188 577.833C253.042 578.269 255.114 576.201 255.816 573.215C256.519 570.228 255.585 567.453 253.731 567.017Z" fill="#CC4B4C"/>
<path d="M319.8 496.946L286.233 489.053C284.379 488.618 282.307 490.685 281.604 493.672L273.975 526.121C273.272 529.107 274.206 531.882 276.06 532.318L309.627 540.211C311.481 540.647 313.553 538.579 314.255 535.592L321.885 503.144C322.587 500.157 321.654 497.382 319.8 496.946Z" fill="#D1D4D1"/>
<path d="M305.915 510.803L292.488 507.646C290.634 507.21 288.562 509.278 287.86 512.264C287.157 515.251 288.091 518.026 289.945 518.462L303.372 521.619C305.226 522.055 307.298 519.987 308 517C308.702 514.013 307.769 511.239 305.915 510.803Z" fill="#E6E7E8"/>
<path d="M210.655 494.111L206.84 510.335L195.193 588.249C194.784 590.988 195.734 593.329 197.416 593.725L221.333 599.349C223.187 599.785 225.259 597.717 225.961 594.73L247.579 502.793L210.655 494.111Z" fill="#E64C3C"/>
<path d="M262.838 437.896L225.914 429.214L206.84 510.335L243.764 519.017L262.838 437.896Z" fill="#C03A2B"/>
<path d="M279.267 413.224L269.094 456.488C268.391 459.475 266.319 461.543 264.465 461.107L220.828 450.846L232.272 402.174C232.975 399.187 235.047 397.119 236.901 397.555L277.182 407.026C279.035 407.462 279.969 410.237 279.267 413.224Z" fill="#E64C3C"/>
<path d="M279.267 413.224L289.337 415.591C291.191 416.027 292.124 418.802 291.422 421.789L283.792 454.237C283.09 457.224 281.018 459.292 279.164 458.856L269.094 456.488L279.267 413.224Z" fill="#C03A2B"/>
<g clip-path="url(#clip0)">
<path d="M423.876 214.349L434.221 248.952L427.904 253.225L423.607 256.13L412.163 217.85L423.876 214.349Z" fill="#F9F6F9"/>
<path d="M416.905 216.433L427.904 253.225L423.607 256.13L412.163 217.85L416.905 216.433Z" fill="#E2DFE2"/>
<path d="M433.652 218.805L406.435 226.942C404.156 227.623 401.756 226.331 401.075 224.054L396.97 210.323L432.442 199.718L436.547 213.448C437.228 215.725 435.932 218.123 433.652 218.805Z" fill="#C3BEC6"/>
<path d="M411.036 225.566L406.436 226.942C404.156 227.623 401.756 226.33 401.075 224.054L396.97 210.323L405.699 207.713L411.036 225.566Z" fill="#B4ACB7"/>
<path d="M422.346 251.905C421.281 252.224 420.08 251.941 419.27 251.076C418.131 249.858 418.196 247.948 419.416 246.81L429.392 237.496C430.613 236.357 432.524 236.421 433.663 237.638C434.802 238.856 434.737 240.766 433.517 241.905L423.541 251.219C423.189 251.547 422.779 251.776 422.346 251.905Z" fill="#E2DFE2"/>
<path d="M419.181 241.321C418.116 241.639 416.916 241.357 416.106 240.491C414.967 239.274 415.032 237.363 416.252 236.225L426.228 226.911C427.449 225.773 429.36 225.836 430.499 227.054C431.638 228.271 431.573 230.181 430.353 231.32L420.377 240.634C420.024 240.963 419.614 241.191 419.181 241.321Z" fill="#E2DFE2"/>
<path d="M357.341 238.613C363.509 259.131 369.362 279.747 374.901 300.457C375.827 303.918 374.391 307.599 371.335 309.474C363.358 314.375 354.691 316.966 345.333 317.247C341.749 317.357 338.525 315.07 337.399 311.669C330.548 290.961 324.021 270.156 317.819 249.257C313.947 236.235 310.205 223.174 306.588 210.075C305.106 204.71 303.647 199.337 302.207 193.959C301.281 190.497 302.721 186.816 305.776 184.936C313.754 180.039 322.421 177.448 331.777 177.163C335.362 177.057 338.583 179.345 339.709 182.746C341.412 187.895 343.095 193.045 344.756 198.206C349.089 211.632 353.284 225.1 357.341 238.613Z" fill="#C3BEC6"/>
<path d="M329.32 216.007C329.263 216.024 329.206 216.041 329.15 216.058C324.44 217.486 321.773 222.463 323.066 227.204C327.207 242.389 331.714 257.464 336.588 272.429C338.109 277.102 343.071 279.799 347.791 278.407C347.848 278.39 347.905 278.373 347.961 278.356C352.67 276.929 355.338 271.951 354.045 267.21C349.904 252.026 345.397 236.95 340.523 221.985C339.001 217.312 334.04 214.615 329.32 216.007Z" fill="#B4ACB7"/>
<path d="M464.697 334.236L476.693 340.7L518.802 328.11C518.802 328.11 519.688 316.339 518.15 307.966C517.823 306.184 516.88 304.576 515.48 303.425L510.285 299.157C508.315 297.539 505.668 297.007 503.224 297.738L333.482 348.487C331.037 349.217 329.117 351.115 328.359 353.549L326.359 359.968C325.82 361.698 325.914 363.56 326.619 365.229C329.929 373.072 337.131 382.425 337.131 382.425L379.24 369.836L385.719 357.849L464.697 334.236Z" fill="#665E66"/>
<path d="M348.058 344.128L333.482 348.486C331.038 349.217 329.117 351.115 328.359 353.548L326.359 359.968C325.82 361.698 325.915 363.56 326.619 365.229C329.929 373.072 337.131 382.425 337.131 382.425L355.618 376.898C355.618 376.898 348.416 367.545 345.106 359.702C344.401 358.033 344.307 356.171 344.846 354.441L348.058 344.128Z" fill="#544F57"/>
<path d="M464.697 334.236L476.693 340.7L495.18 335.173L483.184 328.709L464.697 334.236Z" fill="#544F57"/>
<path d="M316.837 311.386L319.128 319.048C319.759 321.161 321.362 322.846 323.442 323.585L343.247 330.617L347.35 344.34L426.947 320.543L422.844 306.82C422.844 306.82 461.386 291.175 487.554 271.177C489.83 269.437 490.775 266.461 489.955 263.719L488.833 259.965C487.738 256.303 483.878 254.223 480.212 255.319L321.494 302.772C317.827 303.867 315.742 307.724 316.837 311.386Z" fill="#78D0B1"/>
<path d="M343.236 330.61L422.841 306.81L424.988 313.99L345.382 337.79L343.236 330.61Z" fill="#66B49D"/>
<path d="M355.574 326.929L359.677 340.655L347.35 344.34L343.247 330.614L323.443 323.582C321.364 322.847 319.762 321.159 319.13 319.046L316.839 311.385C315.744 307.722 317.829 303.864 321.493 302.769L333.82 299.084C330.152 300.18 328.068 304.037 329.163 307.7L331.453 315.361C332.085 317.474 333.687 319.162 335.766 319.898L355.574 326.929Z" fill="#66B49D"/>
<path d="M357.341 238.613C344.218 242.335 331.042 245.884 317.819 249.257C313.947 236.235 310.205 223.174 306.588 210.075C319.293 206.05 332.015 202.096 344.756 198.206C349.089 211.632 353.284 225.1 357.341 238.613Z" fill="#B4ACB7"/>
<path d="M356.464 170.615C353.838 176.327 351.059 182.098 348.232 187.874C347.294 189.79 345.604 191.233 343.562 191.856C328.093 196.574 312.654 201.39 297.244 206.304C293.419 207.524 291.161 211.486 292.093 215.386C294.343 224.806 297.335 231.89 302.285 240.712C303.978 243.729 307.492 245.244 310.851 244.4C332.568 238.942 354.144 233.013 375.579 226.612C397.357 220.11 418.989 213.121 440.475 205.645C443.748 204.507 445.853 201.312 445.612 197.86C444.745 185.434 442.841 176.84 437.625 164.471C436.012 160.645 434.207 156.876 432.209 153.164C430.552 150.084 426.99 148.535 423.593 149.39C402.684 154.645 381.904 160.338 361.256 166.468C359.137 167.097 357.387 168.608 356.464 170.615Z" fill="#78D0B1"/>
<path d="M318.844 237.86C313.894 229.039 310.326 220.026 308.076 210.606C307.309 207.394 308.59 203.753 311.201 201.885C306.546 203.349 301.893 204.82 297.244 206.303C293.419 207.522 291.162 211.485 292.093 215.384C294.343 224.805 297.335 231.889 302.285 240.71C303.978 243.728 307.492 245.243 310.852 244.398C314.877 243.387 318.896 242.353 322.912 241.309C321.229 240.695 319.766 239.503 318.844 237.86Z" fill="#66B49D"/>
<path d="M359.544 187.076C361.587 186.453 363.277 185.011 364.215 183.094C367.042 177.318 369.821 171.547 372.447 165.835C372.843 164.974 373.285 163.851 373.828 162.798C369.632 164.004 365.441 165.224 361.256 166.466C359.136 167.095 357.387 168.606 356.464 170.614C353.838 176.326 351.059 182.096 348.232 187.872C347.381 189.611 345.907 190.953 344.116 191.653C349.267 190.152 354.414 188.641 359.544 187.076Z" fill="#66B49D"/>
<path d="M430.047 180.504C427.781 181.181 425.229 180.488 423.638 178.546C421.524 175.968 421.904 172.164 424.487 170.05L451.119 148.261C453.702 146.148 457.51 146.524 459.623 149.103C461.737 151.682 461.357 155.486 458.774 157.599L432.142 179.388C431.504 179.911 430.791 180.281 430.047 180.504Z" fill="#665E66"/>
<path d="M458.774 157.599L432.143 179.388C431.504 179.911 430.791 180.283 430.046 180.506C427.834 181.167 425.349 180.52 423.76 178.681C424.459 178.375 425.128 177.969 425.747 177.465L459.919 149.502C461.694 152.06 461.228 155.593 458.774 157.599Z" fill="#544F57"/>
<path d="M457.533 161.584C462.319 160.153 465.041 155.118 463.612 150.338C462.183 145.559 457.145 142.844 452.359 144.275C447.573 145.706 444.851 150.74 446.28 155.52C447.709 160.3 452.748 163.014 457.533 161.584Z" fill="#DA4A54"/>
<path d="M460.362 160.165C459.533 160.782 458.584 161.267 457.534 161.581C452.747 163.012 447.709 160.298 446.281 155.521C444.851 150.74 447.573 145.705 452.36 144.274C453.41 143.96 454.469 143.845 455.501 143.906C452.549 146.116 451.133 150.004 452.249 153.736C453.365 157.468 456.681 159.938 460.362 160.165Z" fill="#D82E3D"/>
<path d="M382.92 210.919C381.141 211.522 379.343 212.06 377.525 212.531C374.356 213.354 371.063 211.58 370.011 208.483C369.409 206.707 368.872 204.911 368.401 203.095C367.58 199.93 369.358 196.639 372.459 195.587C374.201 194.996 375.961 194.468 377.74 194.004C380.995 193.154 384.33 194.951 385.405 198.133C385.992 199.873 386.517 201.632 386.978 203.41C387.799 206.576 386.021 209.866 382.92 210.919Z" fill="#FFEF4A"/>
<path d="M407.767 203.49C405.989 204.093 404.19 204.631 402.372 205.103C399.203 205.925 395.91 204.151 394.859 201.054C394.256 199.278 393.719 197.482 393.248 195.667C392.427 192.501 394.205 189.211 397.307 188.158C399.048 187.567 400.809 187.039 402.588 186.575C405.843 185.725 409.177 187.522 410.252 190.704C410.839 192.445 411.364 194.204 411.825 195.982C412.647 199.147 410.868 202.438 407.767 203.49Z" fill="#DA4A54"/>
<path d="M382.595 211.017C382.649 211.001 382.704 210.988 382.759 210.972C381.032 211.555 379.286 212.073 377.526 212.532C374.357 213.354 371.063 211.579 370.012 208.483C369.409 206.706 368.872 204.909 368.4 203.093C367.58 199.928 369.359 196.636 372.46 195.587C374.186 195 375.935 194.477 377.698 194.017C377.64 194.035 377.586 194.051 377.53 194.072C374.428 195.121 372.649 198.412 373.473 201.576C373.941 203.394 374.478 205.19 375.085 206.966C376.132 210.064 379.426 211.838 382.595 211.017Z" fill="#FFD321"/>
<path d="M407.443 203.588C407.497 203.572 407.552 203.559 407.606 203.543C405.88 204.127 404.137 204.643 402.374 205.103C399.204 205.925 395.911 204.15 394.859 201.054C394.256 199.277 393.719 197.481 393.248 195.664C392.427 192.499 394.206 189.208 397.308 188.159C399.033 187.571 400.782 187.049 402.546 186.588C402.488 186.606 402.434 186.622 402.377 186.643C399.276 187.692 397.496 190.983 398.321 194.148C398.792 195.964 399.329 197.76 399.932 199.538C400.979 202.635 404.273 204.409 407.443 203.588Z" fill="#D82E3D"/>
</g>
<g clip-path="url(#clip1)">
<path d="M612.204 557.47C602.451 563.015 596.404 566.541 595.572 567.019C592.733 568.646 589.137 568.012 587.025 565.513C571.372 547.052 572.981 548.892 572.443 548.676L567.411 549.492L557.946 569.409C556.519 572.403 553.136 573.924 549.95 573.005L531.528 568.02C528.314 567.206 526.16 564.186 526.436 560.881C528.348 538.638 528.491 538.888 528.163 538.799L524.138 535.638C523.811 535.549 525.736 535.052 503.281 543.023C500.196 544.116 496.772 542.849 495.141 540.012C491.006 532.712 488.229 527.921 485.595 523.38C483.969 520.54 484.602 516.944 487.101 514.831C505.336 499.359 503.876 500.861 503.997 500.542C503.195 494.811 503.3 495.331 503.277 495.289L483.472 485.679C480.48 484.252 478.959 480.868 479.878 477.682L484.864 459.257C485.678 456.042 488.698 453.888 492.002 454.164C514.242 456.074 513.992 456.217 514.081 455.889L517.242 451.863C517.331 451.536 517.78 453.378 509.859 431.003C508.767 427.919 510.034 424.494 512.871 422.862C520.212 418.702 525.003 415.924 529.502 413.314C532.341 411.687 535.937 412.32 538.049 414.819C553.675 433.379 552.066 431.538 552.605 431.754L557.637 430.939L567.101 411.021C568.529 408.028 571.912 406.507 575.098 407.425L582.918 409.542C584.617 410.001 585.621 411.751 585.161 413.45L584.187 417.05C582.605 422.93 584.298 429.207 588.621 433.494C590.87 435.824 590.236 433.755 590.738 438.001L592.068 449.565C592.16 450.587 591.783 451.596 591.044 452.309C586.78 456.388 586.424 460.296 583.891 469.656C582.134 476.16 584.395 483.087 589.651 487.301L589.279 488.676C587.707 494.504 589.353 500.729 593.6 505.018C594.439 505.841 594.792 507.04 594.534 508.186L592.452 515.877C591.058 521.028 592.17 526.534 595.453 530.739L601.712 538.755C604.785 542.694 609.2 545.364 614.115 546.256L615.215 549.329C616.307 552.414 615.04 555.839 612.204 557.47Z" fill="#9D27B0"/>
<path d="M599.811 536.309C592.001 542.693 582.672 546.944 572.731 548.649C572.638 548.659 572.545 548.634 572.469 548.578L567.654 549.242C560.742 549.852 553.776 549.227 547.083 547.397C538.779 545.203 531.073 541.173 524.533 535.604C524.44 535.614 524.347 535.589 524.272 535.533C513.649 526.561 506.519 514.138 504.131 500.438C504.131 500.438 503.494 495.524 503.419 495.152C502.3 481.318 506.034 467.524 513.977 456.142C514.229 455.859 517.216 451.961 517.257 451.937C526.229 441.312 538.651 434.18 552.349 431.791C552.443 431.781 552.536 431.806 552.611 431.861L557.426 431.198C568.945 430.211 580.501 432.606 590.679 438.09L592.009 449.654C592.1 450.677 591.724 451.686 590.985 452.398C586.78 456.388 586.407 460.361 583.891 469.656C582.135 476.16 584.396 483.087 589.651 487.301L589.279 488.676C587.707 494.504 589.353 500.729 593.6 505.018C594.439 505.841 594.793 507.04 594.534 508.186L592.452 515.877C591.058 521.028 592.17 526.534 595.453 530.739L599.811 536.309Z" fill="#673AB7"/>
<path d="M580.52 495.086C577.83 505.027 567.592 510.905 557.652 508.215C555.99 507.771 554.4 507.092 552.93 506.199C545.791 501.904 542.368 493.393 544.545 485.349C546.722 477.306 553.97 471.683 562.301 471.575C564.021 471.545 565.737 471.761 567.395 472.216C577.335 474.906 583.211 485.145 580.52 495.086Z" fill="#6A1B9A"/>
<path d="M552.93 506.199C560.159 508.156 568.116 501.991 570.704 492.429C573.292 482.868 569.53 473.531 562.301 471.575C555.073 469.618 547.115 475.783 544.528 485.345C541.94 494.906 545.702 504.243 552.93 506.199Z" fill="#9D27B0"/>
<path d="M681.366 446.864L659.42 476.048L607.067 461.879L602.836 425.61L681.366 446.864Z" fill="#3F51B5"/>
<path d="M671.549 444.207L649.604 473.391L659.42 476.048L681.366 446.864L671.549 444.207Z" fill="#283593"/>
<path d="M637.475 505.232L631.274 528.141L615.529 534.416L605.098 521.056L611.298 498.147L637.475 505.232Z" fill="#9E9E9E"/>
<path d="M627.658 502.575L621.458 525.484L611.613 529.422L615.529 534.416L631.274 528.14L637.474 505.232L627.658 502.575Z" fill="#707070"/>
<path d="M651.719 491.526L648.176 504.616C647.687 506.424 645.826 507.492 644.019 507.003L604.754 496.376C602.947 495.887 601.878 494.025 602.367 492.218L605.91 479.127L651.719 491.526Z" fill="#283593"/>
<path d="M641.903 488.869L638.36 501.959C637.871 503.767 636.01 504.836 634.202 504.346L604.754 496.376C602.947 495.887 601.878 494.025 602.367 492.218L605.91 479.127L641.903 488.869Z" fill="#3F51B5"/>
<path d="M662.692 476.934L603.795 460.993C601.988 460.504 600.126 461.573 599.637 463.38L596.98 473.198C596.491 475.005 597.559 476.867 599.366 477.356L658.264 493.297C660.071 493.786 661.932 492.717 662.421 490.91L665.079 481.092C665.568 479.284 664.499 477.423 662.692 476.934Z" fill="#0377BC"/>
<path d="M652.876 474.277L603.795 460.993C601.988 460.504 600.126 461.573 599.637 463.38L596.98 473.198C596.491 475.005 597.559 476.867 599.366 477.356L648.447 490.64C650.254 491.129 652.116 490.06 652.605 488.253L655.262 478.435C655.752 476.628 654.683 474.766 652.876 474.277Z" fill="#02A9F4"/>
<path d="M696.767 415.909L688.796 445.363C688.306 447.17 686.445 448.239 684.638 447.75L599.564 424.724C599.008 424.585 598.503 424.29 598.108 423.874C597.221 423.022 596.865 421.756 597.177 420.566L605.149 391.112C605.638 389.305 607.5 388.236 609.307 388.725L694.381 411.751C696.188 412.24 697.256 414.101 696.767 415.909Z" fill="#0377BC"/>
<path d="M686.951 413.252L678.979 442.706C678.49 444.513 676.629 445.582 674.822 445.093L599.564 424.724C599.008 424.585 598.503 424.29 598.108 423.874C597.221 423.022 596.865 421.756 597.177 420.566L605.149 391.112C605.638 389.305 607.5 388.236 609.307 388.725L684.565 409.094C686.372 409.583 687.44 411.445 686.951 413.252Z" fill="#02A9F4"/>
<path d="M556.767 511.487C568.513 514.667 580.613 507.72 583.792 495.972C586.972 484.223 580.028 472.122 568.281 468.943C556.535 465.764 544.435 472.711 541.255 484.459C538.096 496.205 545.033 508.292 556.767 511.487ZM566.51 475.488C574.642 477.689 579.45 486.067 577.248 494.2C575.047 502.334 566.67 507.143 558.538 504.942C550.406 502.741 545.598 494.364 547.8 486.23C550.017 478.109 558.38 473.307 566.51 475.488Z" fill="black"/>
<path d="M492.255 450.895C487.298 450.481 482.769 453.713 481.548 458.535L476.535 477.058C475.157 481.838 477.438 486.913 481.927 489.054L500.13 497.704C500.184 498.281 500.272 498.867 500.368 499.419L485.033 512.093C481.278 515.268 480.332 520.676 482.786 524.937L492.331 541.57C494.783 545.831 499.932 547.727 504.562 546.075L523.565 539.311L524.926 540.382L523.213 560.465C522.798 565.422 526.029 569.952 530.85 571.173L549.37 576.185C554.149 577.563 559.223 575.281 561.365 570.791L570.015 552.585L571.73 552.347L584.728 567.772C587.903 571.527 593.309 572.473 597.57 570.018L610.95 562.364C612.606 561.474 613.228 559.41 612.338 557.753C611.448 556.096 609.384 555.474 607.727 556.364L594.173 564.146C592.761 564.958 590.971 564.65 589.911 563.414L579.285 550.774C588.078 548.355 596.229 544.024 603.156 538.092C604.574 536.866 604.729 534.722 603.503 533.304C602.277 531.886 600.134 531.73 598.716 532.957C577.056 551.387 545.017 550.63 524.255 531.197C503.492 511.764 500.615 479.842 517.568 457.005C534.521 434.169 565.907 427.689 590.514 441.944C591.568 442.543 592.863 442.534 593.909 441.92C594.955 441.306 595.595 440.18 595.586 438.967C595.578 437.754 594.923 436.637 593.868 436.038C584.458 430.682 573.839 427.808 563.012 427.687L570.069 412.773C570.783 411.276 572.474 410.515 574.067 410.975L584.931 413.915C586.738 414.404 588.599 413.335 589.088 411.528C589.578 409.72 588.509 407.859 586.702 407.369L575.806 404.42C571.027 403.043 565.953 405.325 563.811 409.814L555.161 428.021L553.446 428.259L540.656 412.715C537.481 408.959 532.075 408.013 527.814 410.468L511.183 420.017C506.922 422.47 505.026 427.619 506.678 432.25L513.439 451.255C513.077 451.684 512.706 452.146 512.368 452.616L492.255 450.895ZM483.123 478.666L488.137 460.142C488.544 458.535 490.053 457.458 491.705 457.596L508.108 459.015C502.772 468.349 499.917 478.895 499.817 489.646L484.938 482.599C483.465 481.896 482.703 480.243 483.123 478.666ZM561.983 552.94L554.935 567.822C554.221 569.318 552.529 570.079 550.936 569.62L532.449 564.616C530.842 564.209 529.765 562.699 529.903 561.047L531.323 544.642C540.658 550.002 551.219 552.86 561.983 552.94ZM517.883 534.226L502.341 539.748C500.807 540.292 499.104 539.669 498.283 538.264L488.738 521.631C487.926 520.219 488.234 518.429 489.47 517.368L502.076 506.731C504.899 517.091 510.33 526.554 517.85 534.217L517.883 534.226ZM514.506 425.904L531.137 416.355C532.549 415.544 534.339 415.851 535.399 417.087L546.034 429.695C535.623 432.52 526.115 437.978 518.426 445.545L512.905 430.001C512.36 428.428 513.038 426.691 514.506 425.904Z" fill="black"/>
<path d="M695.267 408.478L610.193 385.453C606.578 384.474 602.855 386.612 601.877 390.227L593.905 419.68C593.245 422 593.922 424.494 595.663 426.162C596.77 427.304 598.219 428.053 599.79 428.298C602.813 454.37 602.133 448.32 603.22 457.536C600.058 457.385 597.212 459.444 596.365 462.494L593.708 472.312C592.729 475.927 594.866 479.651 598.48 480.629L601.752 481.514L599.095 491.332C598.117 494.947 600.254 498.671 603.868 499.649L607.14 500.534L601.825 520.17C601.547 521.2 601.769 522.302 602.426 523.143L611.814 535.167L608.714 546.621C608.224 548.428 609.293 550.29 611.1 550.779C612.907 551.268 614.769 550.2 615.258 548.392L618.358 536.938L632.529 531.29C633.52 530.895 634.268 530.056 634.546 529.026L639.861 509.39L643.133 510.276C646.747 511.254 650.47 509.117 651.448 505.502L654.106 495.684L657.378 496.569C660.992 497.548 664.715 495.41 665.693 491.795L668.351 481.977C669.159 478.937 667.771 475.74 664.997 474.256L682.705 450.739L683.752 451.022C687.366 452 691.089 449.863 692.068 446.248L700.039 416.794C701.018 413.18 698.881 409.456 695.267 408.478V408.478ZM628.445 525.619L616.636 530.325L608.813 520.305L613.684 502.306L633.317 507.619L628.445 525.619ZM659.149 490.024L629.7 482.054C627.893 481.565 626.032 482.633 625.543 484.441C625.053 486.248 626.122 488.11 627.929 488.599L647.561 493.913L644.904 503.731L605.639 493.104L608.297 483.286L614.841 485.057C616.648 485.546 618.509 484.477 618.998 482.67C619.488 480.862 618.419 479.001 616.612 478.512L600.252 474.084L602.909 464.266L661.806 480.206L659.149 490.024ZM658.081 472.173L610.178 459.208L606.793 430.193L675.507 448.791L658.081 472.173ZM685.524 444.477L600.449 421.452L608.421 391.998L693.495 415.023L685.524 444.477Z" fill="black"/>
<path d="M614.694 407.745L621.239 409.516C623.046 410.006 624.907 408.937 625.396 407.129C625.886 405.322 624.817 403.46 623.01 402.971L616.466 401.2C614.659 400.711 612.797 401.78 612.308 403.587C611.819 405.394 612.887 407.256 614.694 407.745Z" fill="black"/>
<path d="M634.327 413.059L680.136 425.457C681.943 425.946 683.805 424.877 684.294 423.07C684.783 421.263 683.715 419.401 681.908 418.912L636.098 406.513C634.291 406.024 632.43 407.093 631.941 408.901C631.451 410.708 632.52 412.57 634.327 413.059Z" fill="black"/>
<path d="M553.866 449.412C553.484 447.586 551.699 446.412 549.871 446.785C534.194 449.953 522.833 461.7 517.908 479.896C517.419 481.704 518.487 483.565 520.294 484.054C522.101 484.543 523.963 483.475 524.452 481.667C528.668 466.09 538.163 456.05 551.24 453.407C553.065 453.025 554.239 451.239 553.866 449.412Z" fill="black"/>
<path d="M561.258 449.48C563.065 449.969 564.926 448.901 565.415 447.093C565.905 445.286 564.836 443.424 563.029 442.935C561.222 442.446 559.36 443.515 558.871 445.322C558.382 447.13 559.45 448.991 561.258 449.48Z" fill="black"/>
</g>
</g>
<defs>
<filter id="filter0_i" x="0.199982" y="0" width="1002.78" height="989.979" filterUnits="userSpaceOnUse" color-interpolation-filters="sRGB">
<feFlood flood-opacity="0" result="BackgroundImageFix"/>
<feBlend mode="normal" in="SourceGraphic" in2="BackgroundImageFix" result="shape"/>
<feColorMatrix in="SourceAlpha" type="matrix" values="0 0 0 0 0 0 0 0 0 0 0 0 0 0 0 0 0 0 127 0" result="hardAlpha"/>
<feOffset dy="4"/>
<feGaussianBlur stdDeviation="2"/>
<feComposite in2="hardAlpha" operator="arithmetic" k2="-1" k3="1"/>
<feColorMatrix type="matrix" values="0 0 0 0 0 0 0 0 0 0 0 0 0 0 0 0 0 0 0.25 0"/>
<feBlend mode="normal" in2="shape" result="effect1_innerShadow"/>
</filter>
<clipPath id="clip0">
<rect width="512" height="512" fill="white" transform="translate(232 146.66) rotate(-16.6453)"/>
</clipPath>
<clipPath id="clip1">
<rect width="512" height="512" fill="white" transform="translate(508.76 358) rotate(15.1443)"/>
</clipPath>
</defs>
</svg>
